<svg width="36" height="20" fill="none" xmlns="http://www.w3.org/2000/svg"><path d="M34.868 18.062a2.402 2.402 0 0 0-.118-.228c-.609-1.095-1.77-2.44-3.486-4.034l-.037-.036-.018-.018-.018-.019h-.019c-.778-.742-1.271-1.24-1.478-1.496-.377-.487-.462-.98-.256-1.479.146-.377.694-1.174 1.643-2.39.499-.646.894-1.162 1.186-1.552 2.105-2.799 3.018-4.587 2.738-5.366l-.109-.182c-.073-.11-.261-.21-.565-.301-.305-.091-.694-.106-1.169-.045l-5.256.036c-.085-.03-.207-.028-.365.009l-.237.055-.092.046-.072.055a.811.811 0 0 0-.201.191 1.252 1.252 0 0 0-.182.32 29.798 29.798 0 0 1-1.954 4.106c-.45.754-.863 1.408-1.24 1.962-.378.553-.694.961-.95 1.223a6.615 6.615 0 0 1-.693.63c-.207.158-.365.225-.475.2-.11-.024-.212-.049-.31-.073a1.214 1.214 0 0 1-.41-.447 2.004 2.004 0 0 1-.21-.712 7.87 7.87 0 0 1-.065-.74c-.005-.206-.003-.498.01-.875a29.5 29.5 0 0 0 .018-.767c0-.462.01-.964.027-1.506.019-.541.033-.97.046-1.286.012-.317.018-.651.018-1.004s-.021-.63-.064-.83a2.84 2.84 0 0 0-.191-.585.983.983 0 0 0-.374-.438 2.11 2.11 0 0 0-.612-.246c-.645-.146-1.466-.225-2.464-.237-2.263-.025-3.717.121-4.362.438a2.458 2.458 0 0 0-.693.547c-.22.268-.25.414-.092.438.73.11 1.247.371 1.552.785l.11.219c.085.158.17.438.255.84.085.401.14.845.164 1.332.06.888.06 1.648 0 2.281a27.266 27.266 0 0 1-.173 1.478c-.055.353-.137.64-.247.858a3.62 3.62 0 0 1-.219.402.314.314 0 0 1-.091.09 1.34 1.34 0 0 1-.493.092c-.17 0-.377-.085-.62-.255a4.378 4.378 0 0 1-.758-.703c-.261-.298-.556-.715-.885-1.25A21.825 21.825 0 0 1 9.29 5.697l-.292-.53c-.183-.34-.432-.836-.748-1.487a28.684 28.684 0 0 1-.84-1.89 1.203 1.203 0 0 0-.438-.583l-.091-.055a1.25 1.25 0 0 0-.292-.155 1.937 1.937 0 0 0-.42-.119l-5 .036c-.512 0-.858.116-1.041.347l-.073.11A.59.59 0 0 0 0 1.663c0 .134.037.298.11.493A60.23 60.23 0 0 0 2.49 7.12c.858 1.594 1.603 2.878 2.236 3.85a45.499 45.499 0 0 0 1.935 2.757c.657.864 1.092 1.417 1.304 1.66.213.244.38.426.503.548l.456.438c.292.292.72.642 1.286 1.05.566.407 1.193.809 1.88 1.205.688.395 1.488.717 2.4.966.913.25 1.801.35 2.665.302h2.1c.425-.037.747-.17.967-.402l.072-.091c.049-.073.095-.186.137-.337a1.85 1.85 0 0 0 .064-.502 6.009 6.009 0 0 1 .118-1.415c.091-.42.195-.736.31-.949.117-.213.248-.392.393-.538.146-.146.25-.234.31-.265.062-.03.11-.051.146-.063.292-.098.636-.003 1.032.283.395.286.766.639 1.113 1.058.347.42.764.892 1.25 1.415.487.523.913.912 1.278 1.168l.365.219c.244.146.56.28.95.401.388.122.729.152 1.021.092l4.672-.073c.462 0 .822-.077 1.077-.229.256-.152.407-.32.456-.502.05-.182.052-.389.01-.62a2.295 2.295 0 0 0-.129-.484z" fill="#fff"/></svg>