<svg width="21" height="21" fill="none" xmlns="http://www.w3.org/2000/svg"><path d="M10.568 4.602a2.688 2.688 0 0 0-2.684 2.685 2.688 2.688 0 0 0 2.684 2.684 2.688 2.688 0 0 0 2.685-2.684 2.688 2.688 0 0 0-2.685-2.685zm0 4.602a1.92 1.92 0 0 1-1.917-1.917 1.92 1.92 0 0 1 1.917-1.918 1.92 1.92 0 0 1 1.918 1.918 1.92 1.92 0 0 1-1.918 1.917z" fill="#fff"/><path d="M15.701 2.154A7.307 7.307 0 0 0 10.501 0a7.306 7.306 0 0 0-5.2 2.154c-2.571 2.57-2.89 7.407-.693 10.337L10.501 21l5.883-8.498c2.207-2.941 1.888-7.778-.683-10.348zm.061 9.9l-5.261 7.598-5.27-7.61c-1.994-2.658-1.708-7.026.612-9.346A6.544 6.544 0 0 1 10.501.767c1.76 0 3.413.685 4.658 1.93 2.32 2.32 2.606 6.687.603 9.357z" fill="#fff"/></svg>