<svg width="21" height="21" fill="none" xmlns="http://www.w3.org/2000/svg"><g clip-path="url(#clip0)"><path d="M20.986 17.284a1.611 1.611 0 0 0-.799-1.194l-5.18-2.983a1.626 1.626 0 0 0-1.958.26l-1.02 1.02a.748.748 0 0 1-1 .056 29.49 29.49 0 0 1-2.354-2.118 29.52 29.52 0 0 1-2.117-2.354.748.748 0 0 1 .056-1l1.02-1.02a1.625 1.625 0 0 0 .259-1.957L4.91.814a1.611 1.611 0 0 0-1.194-.8 1.61 1.61 0 0 0-1.36.461L.818 2.013C-.255 3.086-.272 5.049.77 7.54c1.002 2.395 2.871 5.032 5.264 7.425 2.393 2.393 5.03 4.263 7.426 5.264 1.226.513 2.324.77 3.252.77.956 0 1.73-.273 2.275-.818l1.538-1.538c.36-.36.528-.855.461-1.36zm-6.319-3.587l5.18 2.983c.257.147.426.4.465.693a.934.934 0 0 1-.176.683l-6.885-3.93.28-.279c.3-.3.768-.362 1.136-.15zM3.627.688a.936.936 0 0 1 .693.465l2.983 5.18a.944.944 0 0 1-.15 1.137l-.257.257L2.946.865a.931.931 0 0 1 .681-.177zm14.88 19.013c-.853.852-2.597.817-4.785-.098-2.316-.969-4.875-2.786-7.207-5.118-2.332-2.332-4.15-4.891-5.117-7.207C.483 5.09.447 3.347 1.299 2.494l1.142-1.142 3.957 6.873-.265.266a1.427 1.427 0 0 0-.105 1.906 30.17 30.17 0 0 0 2.166 2.41 30.202 30.202 0 0 0 2.409 2.165c.57.459 1.389.414 1.907-.104l.242-.242 6.894 3.935-1.14 1.14z" fill="#fff"/></g><defs><clipPath id="clip0"><path fill="#fff" d="M0 0h21v21H0z"/></clipPath></defs></svg>