<svg width="275" height="284" fill="none" xmlns="http://www.w3.org/2000/svg"><path opacity=".02" d="M.586 284v-8.008c6.77-.26 11.914-.781 15.43-1.562 3.515-.912 6.445-2.67 8.789-5.274 2.474-2.604 4.036-5.924 4.687-9.961.651-4.036.977-9.896.977-17.578V43.18c0-7.552-.326-13.347-.977-17.383-.65-4.167-2.213-7.552-4.687-10.156-2.344-2.604-5.274-4.297-8.79-5.079C12.5 9.652 7.358 9.066.586 8.806V.797c13.412.781 34.441 1.172 63.087 1.172 25.911 0 46.094-.39 60.547-1.172v8.008c-6.901.26-12.11.846-15.625 1.758-3.516.78-6.511 2.473-8.985 5.078-2.343 2.604-3.84 5.924-4.492 9.96-.65 4.037-.976 9.896-.976 17.579v198.437c0 7.552.325 13.412.976 17.578.651 4.037 2.149 7.357 4.492 9.961 2.474 2.604 5.469 4.362 8.985 5.274 3.646.781 8.854 1.302 15.625 1.562V284c-14.453-.781-34.636-1.172-60.547-1.172-28.646 0-49.675.391-63.086 1.172zm150.391 0v-8.008c6.77-.26 11.914-.781 15.429-1.562 3.516-.912 6.446-2.67 8.789-5.274 2.474-2.604 4.037-5.924 4.688-9.961.651-4.036.976-9.896.976-17.578V43.18c0-7.552-.325-13.347-.976-17.383-.651-4.167-2.214-7.552-4.688-10.156-2.343-2.604-5.273-4.297-8.789-5.079-3.515-.911-8.659-1.497-15.429-1.757V.797c13.411.781 34.44 1.172 63.085 1.172 25.912 0 46.094-.39 60.547-1.172v8.008c-6.901.26-12.109.846-15.625 1.758-3.515.78-6.51 2.473-8.984 5.078-2.344 2.604-3.841 5.924-4.492 9.96-.651 4.037-.977 9.896-.977 17.579v198.437c0 7.552.326 13.412.977 17.578.651 4.037 2.148 7.357 4.492 9.961 2.474 2.604 5.469 4.362 8.984 5.274 3.646.781 8.855 1.302 15.625 1.562V284c-14.453-.781-34.635-1.172-60.547-1.172-28.645 0-49.674.391-63.085 1.172z" fill="#fff"/></svg>