<svg width="409" height="285" fill="none" xmlns="http://www.w3.org/2000/svg"><path opacity=".02" d="M.688 284v-8.008c6.77-.26 11.914-.781 15.43-1.562 3.515-.912 6.445-2.67 8.788-5.274 2.474-2.604 4.037-5.924 4.688-9.961.65-4.036.976-9.896.976-17.578V43.18c0-7.552-.325-13.347-.976-17.383-.651-4.167-2.214-7.552-4.688-10.156-2.343-2.604-5.273-4.297-8.789-5.079-3.515-.911-8.659-1.497-15.43-1.757V.797c13.412.781 34.44 1.172 63.086 1.172 25.912 0 46.094-.39 60.547-1.172v8.008c-6.901.26-12.109.846-15.625 1.758-3.515.78-6.51 2.473-8.984 5.078-2.344 2.604-3.841 5.924-4.492 9.96-.651 4.037-.977 9.896-.977 17.579v198.437c0 7.552.326 13.412.977 17.578.65 4.037 2.148 7.357 4.492 9.961 2.474 2.604 5.469 4.362 8.984 5.274 3.646.781 8.854 1.302 15.625 1.562V284c-14.453-.781-34.635-1.172-60.547-1.172-28.645 0-49.674.391-63.086 1.172zM132.719 8.805V.797c16.015.781 36.328 1.172 60.937 1.172 27.474 0 47.722-.39 60.742-1.172v8.008c-10.026.39-17.252 1.627-21.679 3.71-4.297 1.954-6.446 5.665-6.446 11.133 0 4.558 1.563 10.808 4.688 18.75L301.664 221.5l49.219-132.813c7.422-20.182 11.133-36.328 11.133-48.437 0-10.807-2.865-18.685-8.594-23.633-5.599-4.948-13.932-7.552-25-7.812V.797c17.969.781 34.57 1.172 49.805 1.172 12.239 0 22.395-.39 30.468-1.172v8.008c-15.104 5.86-27.278 21.68-36.523 47.46l-84.57 228.516c-5.73-.26-10.352-.39-13.868-.39-3.515 0-8.138.13-13.867.39L157.914 34.391c-6.641-16.537-15.039-25.065-25.195-25.586z" fill="#fff"/></svg>