<svg width="134" height="66" fill="none" xmlns="http://www.w3.org/2000/svg"><path d="M1.406 37V12.39h3.059v10.723h3.164v2.989H4.465V37H1.406zm7.98-10.898v-2.989h3.13V12.391h3.093V37h-3.093V26.102h-3.13zm8.966 5.695v-8.684c0-1.101.492-2.18 1.476-3.234 1.219-1.266 2.742-1.899 4.57-1.899v2.848c-1.382 0-2.343.574-2.882 1.723a2.476 2.476 0 0 0-.246 1.055v7.734c0 .867.398 1.605 1.195 2.215a3.137 3.137 0 0 0 1.933.633v2.847c-2.226 0-3.949-.902-5.168-2.707-.585-.89-.878-1.734-.878-2.531zm7.558 5.238v-2.847c1.242 0 2.133-.563 2.672-1.688.188-.375.281-.738.281-1.09v-7.805c0-.96-.41-1.722-1.23-2.285a3.204 3.204 0 0 0-1.758-.492V17.98c2.156 0 3.82.88 4.992 2.637.586.867.88 1.7.88 2.496v8.684c0 1.148-.493 2.262-1.477 3.34-1.149 1.242-2.602 1.875-4.36 1.898zm8.508-5.097V18.015h2.988v13.57c0 .844.422 1.547 1.266 2.11a3.446 3.446 0 0 0 1.863.527v2.953c-2.25 0-3.984-.88-5.203-2.637-.61-.89-.914-1.758-.914-2.602zm7.664 5.238v-2.953c1.266 0 2.191-.504 2.777-1.512.211-.375.317-.75.317-1.125v-13.57h2.988v13.922c0 1.101-.504 2.19-1.512 3.269-1.218 1.29-2.742 1.945-4.57 1.969zm8.121-5.168l2.777-.528c0 1.055.551 1.887 1.653 2.497.539.257 1.054.398 1.547.421v2.778c-2.274 0-3.973-.82-5.098-2.461-.586-.867-.879-1.77-.879-2.707zm.176-8.649c0-2.132.973-3.715 2.918-4.746.937-.492 1.875-.738 2.812-.738v2.742c-1.078 0-1.91.445-2.496 1.336-.304.445-.457.914-.457 1.406 0 .75.586 1.36 1.758 1.828.89.375 2.613.868 5.168 1.477 1.594.328 2.73 1.113 3.41 2.355.352.657.527 1.395.527 2.215 0 2.25-.902 3.914-2.707 4.993-1.054.632-2.261.949-3.62.949v-2.778c1.078 0 1.98-.375 2.706-1.125.516-.539.774-1.171.774-1.898 0-.938-.926-1.688-2.777-2.25-.47-.14-1.22-.34-2.25-.598-1.102-.258-1.899-.468-2.391-.633-1.781-.703-2.86-1.769-3.234-3.199a6.148 6.148 0 0 1-.141-1.336zm7.277-2.707v-2.777c2.016 0 3.645.75 4.887 2.25.773.96 1.16 1.969 1.16 3.023l-2.777.457c0-1.289-.703-2.19-2.11-2.707-.422-.164-.808-.246-1.16-.246zm8.438 11.145v-8.719c.023-1.078.539-2.144 1.547-3.2 1.218-1.241 2.695-1.874 4.43-1.898v2.778c-1.126 0-2.005.492-2.637 1.476-.258.422-.387.809-.387 1.16v2.391h7.875v-2.39c0-1.055-.54-1.829-1.617-2.32a3.48 3.48 0 0 0-1.512-.352V17.98c1.617 0 3.059.574 4.324 1.722 1.055 1.008 1.594 2.121 1.617 3.34v5.59H69.047v3.164c0 .656.375 1.265 1.125 1.828.61.422 1.254.633 1.934.633V37c-2.133 0-3.81-.867-5.028-2.602-.656-.914-.984-1.78-.984-2.601zM73.793 37v-2.777c1.406 0 2.46-.61 3.164-1.828.14-.258.246-.504.316-.739l2.496.914c-.421 1.617-1.382 2.836-2.882 3.657a6.444 6.444 0 0 1-3.094.773zm7.7-24.61h3.093l6.258 21.376L89.719 37h-1.09l-7.137-24.61zm8.577 13.044l4.36-13.043h3.093c-.21.68-1.09 3.398-2.636 8.156a1764.915 1764.915 0 0 0-3.094 9.527h-.352l-1.37-4.64zm9.14 4.71V18.578c0-1.242.528-2.508 1.583-3.797 1.406-1.687 3.187-2.543 5.344-2.566v3.058c-1.43 0-2.543.727-3.34 2.18-.328.633-.492 1.195-.492 1.688v11.004c0 1.476.726 2.625 2.179 3.445.61.351 1.149.527 1.618.527v3.059c-1.336 0-2.672-.48-4.008-1.442-1.899-1.406-2.86-3.27-2.883-5.59zm8.825 7.032v-3.059c.82 0 1.653-.363 2.496-1.09.891-.797 1.348-1.758 1.371-2.883V19.142c0-.914-.375-1.793-1.125-2.637-.773-.797-1.687-1.207-2.742-1.23v-3.06c2.367 0 4.266 1.02 5.695 3.06.821 1.171 1.231 2.273 1.231 3.304v11.567c0 2.601-1.16 4.593-3.481 5.976-1.218.703-2.367 1.055-3.445 1.055zm9.774-.176h3.058V12.39h-3.058V37zm4.816-11.004h3.797c3.07-.023 4.992-1.195 5.766-3.515.304-.938.457-2.051.457-3.34 0-4.29-1.934-6.54-5.801-6.75h-4.219v2.953h3.305c2.367.047 3.562 1.312 3.586 3.797-.047 2.554-1.231 3.843-3.551 3.867h-3.34v2.988zM2.892 58.584L.348 54.48h.96l2.304 3.78h1.596v-3.78h.924v3.78h1.596l2.292-3.78h.972l-2.556 4.104L11.304 63h-.972l-2.484-3.996H6.132V63h-.924v-3.996H3.492L1.008 63H.036l2.856-4.416zm11.812 3.156l5.28-7.26h.696V63h-.84v-7.14L14.644 63h-.768v-8.52h.828v7.26zm11.508-5.004a28.924 28.924 0 0 1-.372 2.892c-.144.8-.328 1.456-.552 1.968-.216.504-.48.876-.792 1.116a1.729 1.729 0 0 1-1.08.348l-.144-.804c.16-.008.312-.04.456-.096.152-.056.296-.156.432-.3.136-.152.264-.356.384-.612.12-.264.232-.6.336-1.008.104-.416.196-.916.276-1.5a30.48 30.48 0 0 0 .228-2.076l.18-2.184h4.332V63h-.828v-7.776h-2.736l-.12 1.512zm10.745 6.324c-.592 0-1.136-.12-1.632-.36a4.188 4.188 0 0 1-1.26-.972 4.494 4.494 0 0 1-.816-1.392 4.574 4.574 0 0 1 .012-3.228c.208-.52.492-.98.852-1.38.36-.4.784-.716 1.272-.948a3.54 3.54 0 0 1 1.584-.36c.592 0 1.132.128 1.62.384a3.92 3.92 0 0 1 1.26.984c.352.408.624.872.816 1.392a4.443 4.443 0 0 1-.024 3.204c-.2.52-.48.98-.84 1.38a4.116 4.116 0 0 1-1.26.948 3.642 3.642 0 0 1-1.584.348zm-3.156-4.32c0 .464.076.912.228 1.344.152.424.368.804.648 1.14.28.328.612.592.996.792a2.83 2.83 0 0 0 1.284.288c.48 0 .916-.104 1.308-.312a3.19 3.19 0 0 0 .996-.816c.272-.336.48-.716.624-1.14a3.814 3.814 0 0 0-.012-2.628 3.553 3.553 0 0 0-.648-1.14 3.148 3.148 0 0 0-.996-.78c-.384-.2-.808-.3-1.272-.3-.48 0-.916.104-1.308.312-.392.2-.724.468-.996.804a3.874 3.874 0 0 0-.636 1.14 4.005 4.005 0 0 0-.216 1.296zm15.456-6.732a1.16 1.16 0 0 1-.492.924c-.304.224-.728.336-1.272.336s-.972-.112-1.284-.336a1.17 1.17 0 0 1-.48-.924h.516c0 .104.032.204.096.3s.152.18.264.252c.112.072.244.132.396.18.152.04.32.06.504.06.344 0 .628-.072.852-.216.232-.152.364-.344.396-.576h.504zm-4.44 9.732l5.28-7.26h.696V63h-.84v-7.14L44.757 63h-.768v-8.52h.828v7.26zm14.915-3.48h1.296l2.784-3.78h.96l-2.988 4.104 3.3 4.416h-.96L61.1 59.004h-1.368V63h-.828v-8.52h.828v3.78zm10.922 4.8c-.591 0-1.135-.12-1.632-.36a4.188 4.188 0 0 1-1.26-.972 4.494 4.494 0 0 1-.816-1.392 4.574 4.574 0 0 1 .013-3.228c.207-.52.492-.98.852-1.38.36-.4.783-.716 1.271-.948a3.54 3.54 0 0 1 1.585-.36c.591 0 1.132.128 1.62.384a3.92 3.92 0 0 1 1.26.984c.352.408.624.872.816 1.392a4.443 4.443 0 0 1-.025 3.204c-.2.52-.48.98-.84 1.38a4.116 4.116 0 0 1-1.26.948 3.642 3.642 0 0 1-1.584.348zM67.5 58.74c0 .464.076.912.228 1.344.151.424.367.804.647 1.14.28.328.613.592.997.792a2.83 2.83 0 0 0 1.284.288c.48 0 .915-.104 1.308-.312a3.19 3.19 0 0 0 .996-.816c.272-.336.48-.716.623-1.14a3.814 3.814 0 0 0-.011-2.628 3.553 3.553 0 0 0-.648-1.14 3.148 3.148 0 0 0-.996-.78c-.385-.2-.809-.3-1.273-.3-.48 0-.915.104-1.307.312-.392.2-.724.468-.996.804a3.874 3.874 0 0 0-.636 1.14 4.005 4.005 0 0 0-.216 1.296zM85.222 63v-6.996l-3.108 5.412h-.492l-3.108-5.412V63h-.84v-8.52h.864l3.324 5.832 3.348-5.832h.852V63h-.84zm4.463-8.52h6.576V63h-.84v-7.776h-4.908V63h-.828v-8.52zm12.102 2.256a28.924 28.924 0 0 1-.372 2.892c-.144.8-.328 1.456-.552 1.968-.216.504-.48.876-.792 1.116a1.729 1.729 0 0 1-1.08.348l-.144-.804c.16-.008.312-.04.456-.096.152-.056.296-.156.432-.3.136-.152.264-.356.384-.612.12-.264.232-.6.336-1.008.104-.416.196-.916.276-1.5a30.48 30.48 0 0 0 .228-2.076l.18-2.184h4.332V63h-.828v-7.776h-2.736l-.12 1.512zm13.037 5.52V63H109.1v-8.52h5.616v.744h-4.776v3.072h4.164v.708h-4.164v3.252h4.884zm3.868-3.996h1.296l2.784-3.78h.96l-2.988 4.104 3.3 4.416h-.96l-3.024-3.996h-1.368V63h-.828v-8.52h.828v3.78zm6.915.42c0-.512.088-1.02.264-1.524.184-.512.448-.968.792-1.368a3.96 3.96 0 0 1 1.272-.972c.504-.256 1.076-.384 1.716-.384.76 0 1.408.172 1.944.516.544.344.944.792 1.2 1.344l-.66.408a2.457 2.457 0 0 0-.504-.708 2.654 2.654 0 0 0-.624-.468 2.51 2.51 0 0 0-.696-.252 3.109 3.109 0 0 0-.708-.084c-.512 0-.964.104-1.356.312a3.19 3.19 0 0 0-.996.816 3.615 3.615 0 0 0-.6 1.14c-.136.416-.204.84-.204 1.272 0 .472.08.924.24 1.356.168.432.392.816.672 1.152.288.328.624.592 1.008.792.392.192.816.288 1.272.288.24 0 .484-.028.732-.084a3.03 3.03 0 0 0 1.392-.78c.2-.2.368-.44.504-.72l.696.36c-.136.32-.328.604-.576.852-.248.24-.524.444-.828.612a4.103 4.103 0 0 1-.972.384 3.92 3.92 0 0 1-.996.132c-.584 0-1.12-.128-1.608-.384a4.262 4.262 0 0 1-1.26-.996 4.854 4.854 0 0 1-.828-1.404 4.673 4.673 0 0 1-.288-1.608z" fill="#fff"/></svg>