<svg width="277" height="285" fill="none" xmlns="http://www.w3.org/2000/svg"><path opacity=".02" d="M.523 8.805V.797c16.016.781 36.329 1.172 60.938 1.172 27.474 0 47.721-.39 60.742-1.172v8.008c-10.026.39-17.252 1.627-21.68 3.71-4.296 1.954-6.445 5.665-6.445 11.133 0 4.558 1.563 10.808 4.688 18.75L169.469 221.5l49.219-132.813c7.421-20.182 11.132-36.328 11.132-48.437 0-10.807-2.864-18.685-8.593-23.633-5.599-4.948-13.933-7.552-25-7.812V.797c17.968.781 34.57 1.172 49.804 1.172 12.24 0 22.396-.39 30.469-1.172v8.008c-15.104 5.86-27.279 21.68-36.523 47.46l-84.571 228.516c-5.729-.26-10.351-.39-13.867-.39s-8.138.13-13.867.39L25.719 34.391C19.079 17.854 10.679 9.326.523 8.805z" fill="#fff"/></svg>